# Blender 5.1.0
# www.blender.org
mtllib house.mtl
o Cube
v 1.000000 0.676519 -1.000000
v 1.000000 -0.676519 -1.000000
v 1.000000 0.676519 1.000000
v 1.000000 -0.676519 1.000000
v -1.000000 0.676519 -1.000000
v -1.000000 -0.676519 -1.000000
v -1.000000 0.676519 1.000000
v -1.000000 -0.676519 1.000000
v 1.000000 0.000000 -1.000000
v 1.000000 0.000000 1.000000
v 1.000000 0.676519 0.000000
v 1.000000 -0.676519 0.000000
v 1.000000 0.000000 0.000000
v 1.000000 -0.338259 -1.000000
v 1.000000 -0.338259 1.000000
v 1.000000 0.676519 0.500000
v 1.000000 -0.676519 -0.500000
v 1.000000 0.338259 -1.000000
v 1.000000 0.338259 1.000000
v 1.000000 0.676519 -0.500000
v 1.000000 -0.676519 0.500000
v 1.000000 0.000000 -0.500000
v 1.000000 -0.338259 0.000000
v 1.000000 0.338259 0.000000
v 1.000000 0.338259 -0.500000
v 1.000000 -0.338259 0.500000
v 1.000000 0.338259 0.500000
v 1.000000 -0.507389 -1.000000
v 1.000000 -0.507389 1.000000
v 1.000000 0.676519 0.750000
v 1.000000 -0.676519 -0.750000
v 1.000000 0.169130 -1.000000
v 1.000000 0.169130 1.000000
v 1.000000 0.676519 -0.250000
v 1.000000 -0.676519 0.250000
v 1.000000 0.000000 0.750000
v 1.000000 0.000000 -0.250000
v 1.000000 -0.507389 0.000000
v 1.000000 0.169130 0.000000
v 1.000000 -0.169130 -1.000000
v 1.000000 -0.169130 1.000000
v 1.000000 0.676519 0.250000
v 1.000000 -0.676519 -0.250000
v 1.000000 0.507389 -1.000000
v 1.000000 0.507389 1.000000
v 1.000000 0.676519 -0.750000
v 1.000000 -0.676519 0.750000
v 1.000000 0.000000 0.250000
v 1.000000 0.000000 -0.750000
v 1.000000 -0.169130 0.000000
v 1.000000 0.507389 0.000000
v 1.000000 0.338259 -0.250000
v 1.000000 0.338259 -0.750000
v 1.000000 0.169130 -0.500000
v 1.000000 0.507389 -0.500000
v 1.000000 -0.338259 -0.250000
v 1.000000 -0.338259 -0.750000
v 1.000000 -0.338259 0.750000
v 1.000000 -0.338259 0.250000
v 1.000000 -0.507389 0.500000
v 1.000000 0.338259 0.750000
v 1.000000 0.338259 0.250000
v 1.000000 0.169130 0.500000
v 1.000000 0.507389 0.500000
v 1.000000 0.507389 0.250000
v 1.000000 0.169130 0.250000
v 1.000000 0.169130 0.750000
v 1.000000 -0.169130 0.250000
v 1.000000 -0.507389 0.250000
v 1.000000 -0.507389 0.750000
v 1.000000 -0.169130 -0.750000
v 1.000000 -0.507389 -0.750000
v 1.000000 -0.507389 -0.250000
v 1.000000 0.507389 -0.750000
v 1.000000 0.169130 -0.750000
v 1.000000 0.169130 -0.250000
v 1.000000 0.507389 -0.250000
v 1.000000 -0.169130 -0.250000
v 1.000000 -0.169130 0.750000
v 1.000000 0.507389 0.750000
v 1.000000 0.676519 1.000000
v -1.000000 0.676519 1.000000
v 1.000000 0.676519 0.750000
v -1.000000 0.676519 -1.000000
v 1.000000 0.676519 -1.000000
v 1.000000 0.676519 -0.250000
v 1.000000 0.676519 0.000000
v 1.000000 0.676519 0.250000
v 1.000000 0.676519 0.500000
v 1.000000 0.676519 -0.750000
v 1.000000 0.676519 -0.500000
vn -0.0000 1.0000 -0.0000
vn -0.0000 -0.0000 1.0000
vn -1.0000 -0.0000 -0.0000
vn -0.0000 -1.0000 -0.0000
vn 1.0000 -0.0000 -0.0000
vn -0.0000 -0.0000 -1.0000
vt 0.625000 0.500000
vt 0.875000 0.500000
vt 0.875000 0.750000
vt 0.625000 0.750000
vt 0.625000 0.718750
vt 0.625000 0.687500
vt 0.625000 0.656250
vt 0.625000 0.625000
vt 0.625000 0.593750
vt 0.625000 0.562500
vt 0.625000 0.531250
vt 0.375000 0.750000
vt 0.406250 0.750000
vt 0.437500 0.750000
vt 0.468750 0.750000
vt 0.500000 0.750000
vt 0.531250 0.750000
vt 0.562500 0.750000
vt 0.593750 0.750000
vt 0.625000 1.000000
vt 0.375000 1.000000
vt 0.375000 0.000000
vt 0.625000 0.000000
vt 0.625000 0.250000
vt 0.375000 0.250000
vt 0.125000 0.500000
vt 0.375000 0.500000
vt 0.375000 0.531250
vt 0.375000 0.562500
vt 0.375000 0.593750
vt 0.375000 0.625000
vt 0.375000 0.656250
vt 0.375000 0.687500
vt 0.375000 0.718750
vt 0.125000 0.750000
vt 0.593750 0.718750
vt 0.593750 0.500000
vt 0.562500 0.500000
vt 0.531250 0.500000
vt 0.500000 0.500000
vt 0.468750 0.500000
vt 0.437500 0.500000
vt 0.406250 0.500000
vt 0.468750 0.718750
vt 0.500000 0.718750
vt 0.468750 0.593750
vt 0.500000 0.593750
vt 0.500000 0.625000
vt 0.468750 0.625000
vt 0.593750 0.593750
vt 0.593750 0.625000
vt 0.531250 0.593750
vt 0.562500 0.593750
vt 0.562500 0.625000
vt 0.531250 0.625000
vt 0.531250 0.531250
vt 0.562500 0.531250
vt 0.562500 0.562500
vt 0.531250 0.562500
vt 0.593750 0.531250
vt 0.593750 0.562500
vt 0.406250 0.593750
vt 0.437500 0.593750
vt 0.437500 0.625000
vt 0.406250 0.625000
vt 0.406250 0.718750
vt 0.437500 0.718750
vt 0.406250 0.656250
vt 0.437500 0.656250
vt 0.437500 0.687500
vt 0.406250 0.687500
vt 0.531250 0.718750
vt 0.562500 0.718750
vt 0.531250 0.656250
vt 0.562500 0.656250
vt 0.562500 0.687500
vt 0.531250 0.687500
vt 0.593750 0.656250
vt 0.593750 0.687500
vt 0.500000 0.656250
vt 0.468750 0.656250
vt 0.468750 0.531250
vt 0.437500 0.531250
vt 0.500000 0.531250
vt 0.406250 0.531250
vt 0.500000 0.562500
s 0
usemtl Material
f 1/1/1 5/2/1 7/3/1 3/4/1 30/5/1 16/6/1 42/7/1 11/8/1 34/9/1 20/10/1 46/11/1
f 4/12/2 29/13/2 15/14/2 41/15/2 10/16/2 33/17/2 19/18/2 45/19/2 81/4/2 82/20/2 8/21/2
f 8/22/3 82/23/3 84/24/3 6/25/3
f 6/26/4 2/27/4 31/28/4 17/29/4 43/30/4 12/31/4 35/32/4 21/33/4 47/34/4 4/12/4 8/35/4
f 80/36/5 83/5/5 81/4/5 45/19/5
f 6/25/6 84/24/6 85/1/6 44/37/6 18/38/6 32/39/6 9/40/6 40/41/6 14/42/6 28/43/6 2/27/6
f 79/44/5 36/45/5 10/16/5 41/15/5
f 78/46/5 37/47/5 13/48/5 50/49/5
f 77/50/5 86/9/5 87/8/5 51/51/5
f 76/52/5 52/53/5 24/54/5 39/55/5
f 75/56/5 53/57/5 25/58/5 54/59/5
f 74/60/5 90/11/5 91/10/5 55/61/5
f 73/62/5 56/63/5 23/64/5 38/65/5
f 70/66/5 58/67/5 15/14/5 29/13/5
f 69/68/5 59/69/5 26/70/5 60/71/5
f 67/72/5 61/73/5 19/18/5 33/17/5
f 66/74/5 62/75/5 27/76/5 63/77/5
f 65/78/5 88/7/5 89/6/5 64/79/5
f 62/75/5 65/78/5 64/79/5 27/76/5
f 24/54/5 51/51/5 65/78/5 62/75/5
f 51/51/5 87/8/5 88/7/5 65/78/5
f 13/48/5 39/55/5 66/74/5 48/80/5
f 39/55/5 24/54/5 62/75/5 66/74/5
f 36/45/5 67/72/5 33/17/5 10/16/5
f 63/77/5 27/76/5 61/73/5 67/72/5
f 23/64/5 50/49/5 68/81/5 59/69/5
f 50/49/5 13/48/5 48/80/5 68/81/5
f 35/32/5 69/68/5 60/71/5 21/33/5
f 12/31/5 38/65/5 69/68/5 35/32/5
f 38/65/5 23/64/5 59/69/5 69/68/5
f 47/34/5 70/66/5 29/13/5 4/12/5
f 21/33/5 60/71/5 70/66/5 47/34/5
f 60/71/5 26/70/5 58/67/5 70/66/5
f 14/42/5 40/41/5 71/82/5 57/83/5
f 40/41/5 9/40/5 49/84/5 71/82/5
f 2/27/5 28/43/5 72/85/5 31/28/5
f 28/43/5 14/42/5 57/83/5 72/85/5
f 43/30/5 73/62/5 38/65/5 12/31/5
f 53/57/5 74/60/5 55/61/5 25/58/5
f 18/38/5 44/37/5 74/60/5 53/57/5
f 44/37/5 85/1/5 90/11/5 74/60/5
f 49/84/5 75/56/5 54/59/5 22/86/5
f 9/40/5 32/39/5 75/56/5 49/84/5
f 32/39/5 18/38/5 53/57/5 75/56/5
f 37/47/5 76/52/5 39/55/5 13/48/5
f 22/86/5 54/59/5 76/52/5 37/47/5
f 54/59/5 25/58/5 52/53/5 76/52/5
f 52/53/5 77/50/5 51/51/5 24/54/5
f 25/58/5 55/61/5 77/50/5 52/53/5
f 55/61/5 91/10/5 86/9/5 77/50/5
f 56/63/5 78/46/5 50/49/5 23/64/5
f 58/67/5 79/44/5 41/15/5 15/14/5
f 61/73/5 80/36/5 45/19/5 19/18/5
f 27/76/5 64/79/5 80/36/5 61/73/5
f 64/79/5 89/6/5 83/5/5 80/36/5
f 3/4/1 7/3/1 82/3/1 81/4/1
f 30/5/1 3/4/1 81/4/1 83/5/1
f 7/3/1 5/2/1 84/2/1 82/3/1
f 5/2/1 1/1/1 85/1/1 84/2/1
f 34/9/1 11/8/1 87/8/1 86/9/1
f 42/7/1 16/6/1 89/6/1 88/7/1
f 46/11/1 20/10/1 91/10/1 90/11/1
f 16/6/1 30/5/1 83/5/1 89/6/1
f 20/10/1 34/9/1 86/9/1 91/10/1
f 11/8/1 42/7/1 88/7/1 87/8/1
f 1/1/1 46/11/1 90/11/1 85/1/1
o Cone
v -1.175586 0.664176 -1.181194
v 1.185213 0.664176 -1.179586
v 1.175586 0.664176 1.181194
v -1.185213 0.664176 1.179586
v 0.000000 1.635892 0.000000
vn 0.0004 0.7720 -0.6356
vn 0.6356 0.7720 0.0026
vn -0.0000 -1.0000 -0.0000
vn -0.0004 0.7720 0.6356
vn -0.6356 0.7720 -0.0026
vt 0.250000 0.490000
vt 0.250000 0.250000
vt 0.490000 0.250000
vt 0.250000 0.010000
vt 0.750000 0.490000
vt 0.990000 0.250000
vt 0.750000 0.010000
vt 0.510000 0.250000
vt 0.010000 0.250000
s 0
f 92/87/7 96/88/7 93/89/7
f 93/89/8 96/88/8 94/90/8
f 92/91/9 93/92/9 94/93/9 95/94/9
f 94/90/10 96/88/10 95/95/10
f 95/95/11 96/88/11 92/87/11
